<svg version="1.1" id="Layer_1" xmlns="http://www.w3.org/2000/svg" xmlns:xlink="http://www.w3.org/1999/xlink" x="0px" y="0px"
	 width="100%" viewBox="0 0 1000 1000" enable-background="new 0 0 1000 1000" xml:space="preserve">
<path fill="#FFFFFF" opacity="1.000000" stroke="none" 
	d="
M611.000000,690.987793 
	C612.751160,700.882874 608.685852,707.318481 601.961487,713.858154 
	C574.245056,740.812988 547.126343,768.382385 519.776245,795.714233 
	C518.556580,796.933105 517.223511,798.038574 515.310669,799.769348 
	C515.310669,600.316284 515.310669,401.807953 515.310669,204.600128 
	C614.004395,303.296387 713.332397,402.626953 812.660400,501.957550 
	C813.180664,501.597626 813.700928,501.237701 814.221191,500.877777 
	C813.391052,501.841888 812.618835,502.863922 811.722168,503.761627 
	C790.875000,524.632568 769.949585,545.426086 749.228088,566.420898 
	C746.213501,569.475220 744.580872,569.234436 741.713867,566.335144 
	C721.675903,546.070740 701.394897,526.046509 681.391052,505.748840 
	C678.229431,502.540833 676.550903,502.786621 673.527039,505.852173 
	C653.748840,525.903015 633.725098,545.711609 613.945496,565.761108 
	C612.337158,567.391357 611.131958,570.225830 611.122131,572.506714 
	C610.952393,611.834167 611.000000,651.162537 611.000000,690.987793 
z"/>
<path fill="#FFFFFF" opacity="1.000000" stroke="none" 
	d="
M263.750031,424.750031 
	C337.930603,350.562836 411.861145,276.625641 486.597565,201.882538 
	C486.597565,401.646240 486.597565,600.199707 486.597565,799.353455 
	C485.439423,798.488708 484.510529,797.955994 483.778900,797.225586 
	C453.594818,767.094299 423.397614,736.975891 393.352478,706.706482 
	C391.878510,705.221497 391.097443,702.398621 391.094574,700.197327 
	C390.983154,614.389160 391.000000,528.580933 391.000000,442.772644 
	C391.000000,440.964233 391.000000,439.155792 391.000000,435.990509 
	C388.983673,437.796844 387.702148,438.839813 386.539459,440.001678 
	C344.583008,481.929474 302.594849,523.825806 260.770111,565.884583 
	C257.334625,569.339294 255.487305,569.239136 252.178375,565.832703 
	C239.409775,552.687866 226.332855,539.842590 213.372818,526.883667 
	C204.874329,518.385864 196.379257,509.884705 187.494415,500.996613 
	C212.931610,475.562439 238.215820,450.281219 263.750031,424.750031 
z"/>
</svg>